<svg xmlns="http://www.w3.org/2000/svg" width="111.5" height="111.5" viewBox="0 0 111.5 111.5"><title>Icon_DesignWithUser</title><g id="Layer_2" data-name="Layer 2"><g id="Layer_1-2" data-name="Layer 1"><path d="M110.75,55.75a55,55,0,1,1-55-55,55,55,0,0,1,55,55" fill="#0072ce" stroke="#fff" stroke-miterlimit="10" stroke-width="1.5"/><path d="M55.32,58.66A28.73,28.73,0,0,0,26.6,87.39H84.05A28.73,28.73,0,0,0,55.32,58.66Z" fill="#fff"/><circle cx="55.32" cy="37.12" r="16.76" fill="#fff"/><polygon points="57.95 80.68 62.86 85.5 66.12 82.23 61.26 77.37 57.95 80.68" fill="#fff"/><path d="M87.07,53.9C84.25,56,80.62,59.1,76.28,63c-6.16,5.59-12,11.35-13.87,13.18l4.87,4.87c1.83-1.85,7.59-7.71,13.18-13.87,3.94-4.34,7-8,9.14-10.79C92.89,52,93,50.76,93,50.47,92.73,50.44,91.44,50.6,87.07,53.9Z" fill="#fff"/><path d="M63.46,87.18l4.32-4.32,0,0c.07-.07,7.44-7.45,14.34-15.1,4.06-4.5,7.18-8.22,9.26-11.06,3.05-4.16,3.86-6.3,2.77-7.38S91,49,86.8,52.08c-2.83,2.08-6.55,5.19-11.06,9.26-7.65,6.9-15,14.27-15.1,14.34l0,0L56.14,80.2m6.72,5.3L58,80.68l3.31-3.31,4.86,4.86ZM89.59,56.42c-2.13,2.82-5.2,6.45-9.14,10.79-5.59,6.16-11.35,12-13.18,13.87L62.4,76.22c1.85-1.83,7.71-7.59,13.87-13.18,4.34-3.94,8-7,10.79-9.14,4.37-3.3,5.66-3.46,5.95-3.43C93,50.76,92.89,52,89.59,56.42Z" fill="#0072ce"/><path d="M45,98.24S57.69,95.77,60.51,93A7.22,7.22,0,1,0,50.29,82.74C47.47,85.56,45,98.24,45,98.24Z" fill="#fff"/><path d="M44.05,99.19l.21-1.1c.1-.53,2.54-12.94,5.49-15.89a7.93,7.93,0,0,1,5.64-2.34h0A8,8,0,0,1,61,93.49C58.09,96.44,45.68,98.88,45.15,99ZM55.4,81.38a6.43,6.43,0,0,0-4.57,1.89c-2,2-4,9.94-4.85,14,4.05-.86,12-2.87,14-4.85a6.47,6.47,0,0,0-4.57-11Z" fill="#0072ce"/></g></g></svg>