<svg xmlns="http://www.w3.org/2000/svg" width="111.5" height="111.5" viewBox="0 0 111.5 111.5"><title>Icon_ReuseImprove</title><g id="Layer_2" data-name="Layer 2"><g id="Layer_1-2" data-name="Layer 1"><path d="M110.75,55.75a55,55,0,1,1-55-55,55,55,0,0,1,55,55Z" fill="#ff9e1b" stroke="#fff" stroke-miterlimit="10" stroke-width="1.5"/><path d="M49.64,14.67v-8c.5.16.88.18,1.09.37q4.57,4.34,9.09,8.74a1.83,1.83,0,0,1,.26.48,79.11,79.11,0,0,1-9.72,10,6.88,6.88,0,0,1-.28-2.67c0-.82,0-1.65-.08-2.47s.11-1.84-.69-2.72a10.53,10.53,0,0,0-3.1.49c-15.3,4.62-24.59,14.8-28,30.37a34.57,34.57,0,0,0,.07,14.16c.12.61.18,1.24.26,1.8a4.35,4.35,0,0,1-2.63.91,18.2,18.2,0,0,1-1.32-6.53c-.76-11.55,2.42-21.87,10-30.71A41,41,0,0,1,46.49,15.6c.71-.18,1.42-.34,2.13-.52C48.87,15,49.12,14.88,49.64,14.67Z" fill="#fff"/><path d="M83.17,84.08l1.78,1.66c-.24,1.11-1.07,1.59-1.74,2.16a39.42,39.42,0,0,1-18.26,9C51.28,99.52,39,96.43,28.43,87.21c-1.24-1.08-2.33-2.33-3.49-3.49-.38-.38-.79-.72-1.25-1.14-2.62.87-4.58,2.95-7.5,3.94,1-4.33,2-8.3,3-12.27a13.24,13.24,0,0,1,.67-1.66c4.62.9,9.09,2.1,13.87,3.32-2.16,2-4.77,2.83-6.64,4.53-.15,1.1.61,1.6,1.15,2.17A37.11,37.11,0,0,0,46.62,93.46c12.65,3.07,24.09.42,34.26-7.7l1.7-1.38A5.93,5.93,0,0,1,83.17,84.08Z" fill="#fff"/><path d="M84.57,65.8c3,.91,4.93,2.65,7.25,3.47,1-.47,1.09-1.31,1.32-2.08a37.34,37.34,0,0,0-1.57-26.24A38.16,38.16,0,0,0,69.06,19.76c-.67-.25-1.34-.52-2.1-.82.11-.63.16-1.17.3-1.68a6.58,6.58,0,0,1,.52-1.07c.49.12.92.19,1.34.32A41.85,41.85,0,0,1,96,68.58c-.24.77-.42,1.57-.64,2.39,2,1.92,4.69,2.59,6.85,4.26-.59.92-1.55.89-2.36,1.15s-1.74.56-2.61.82-1.94.53-2.9.81-1.74.55-2.62.8-1.75.46-2.75.72a3,3,0,0,1-.48-.67C87.06,74.74,86,70.51,84.57,65.8Z" fill="#fff"/><path d="M75.85,51.29,70.9,50a.31.31,0,0,1-.22-.19c-.15-.42-.32-.83-.51-1.23a.31.31,0,0,1,0-.29L72.81,44a1.42,1.42,0,0,0-.22-1.73l-3.75-3.75a1.42,1.42,0,0,0-1.73-.21l-4.38,2.61a.31.31,0,0,1-.29,0c-.4-.19-.82-.36-1.23-.51a.31.31,0,0,1-.19-.22l-1.25-4.94a1.42,1.42,0,0,0-1.38-1.07H53.1a1.42,1.42,0,0,0-1.38,1.07l-1.25,4.94a.31.31,0,0,1-.19.22c-.42.15-.83.32-1.23.51a.31.31,0,0,1-.29,0l-4.38-2.61a1.42,1.42,0,0,0-1.73.21L38.9,42.23A1.42,1.42,0,0,0,38.69,44l2.61,4.38a.31.31,0,0,1,0,.29c-.19.4-.36.82-.51,1.23a.31.31,0,0,1-.22.19l-4.94,1.25a1.42,1.42,0,0,0-1.07,1.38v6.17a1.42,1.42,0,0,0,1.07,1.37l4.94,1.25a.31.31,0,0,1,.22.19c.15.42.32.83.51,1.23a.31.31,0,0,1,0,.29l-2.61,4.38a1.42,1.42,0,0,0,.22,1.73L42.66,73a1.42,1.42,0,0,0,1.73.21l4.38-2.61a.31.31,0,0,1,.29,0c.4.19.82.36,1.23.51a.31.31,0,0,1,.19.22l1.25,4.94a1.42,1.42,0,0,0,1.38,1.07H58.4a1.42,1.42,0,0,0,1.38-1.07L61,71.34a.31.31,0,0,1,.19-.22c.42-.15.83-.32,1.23-.51a.31.31,0,0,1,.29,0l4.38,2.61A1.42,1.42,0,0,0,68.84,73l3.75-3.75a1.42,1.42,0,0,0,.21-1.73L70.2,63.16a.31.31,0,0,1,0-.29c.19-.4.36-.82.51-1.23a.31.31,0,0,1,.22-.19l4.94-1.25a1.42,1.42,0,0,0,1.07-1.37V52.67A1.42,1.42,0,0,0,75.85,51.29Zm-20.1,15.8A11.34,11.34,0,1,1,67.09,55.75,11.34,11.34,0,0,1,55.75,67.09Z" fill="#fff"/></g></g></svg>