<svg xmlns="http://www.w3.org/2000/svg" width="111.5" height="111.5" viewBox="0 0 111.5 111.5"><title>Icon_PrivacySecuriy</title><g id="Layer_2" data-name="Layer 2"><g id="Layer_1-2" data-name="Layer 1"><circle cx="55.75" cy="55.75" r="55" fill="#093" stroke="#fff" stroke-miterlimit="10" stroke-width="1.5"/><path d="M47.07,39.19a6.79,6.79,0,0,1,6.78-6.78h3.81a6.79,6.79,0,0,1,6.78,6.78V55.47h6.78V39.19A13.57,13.57,0,0,0,57.65,25.64H53.84A13.57,13.57,0,0,0,40.29,39.19V55.47h6.78Z" fill="#fff"/><path d="M73.09,53.72H38.41a2.69,2.69,0,0,0-2.69,2.69V83.17a2.69,2.69,0,0,0,2.69,2.69H73.09a2.69,2.69,0,0,0,2.69-2.69V56.41A2.69,2.69,0,0,0,73.09,53.72ZM58.55,69.64v8a2.8,2.8,0,1,1-5.6,0v-8a5.13,5.13,0,1,1,5.6,0Z" fill="#fff"/></g></g></svg>