<svg xmlns="http://www.w3.org/2000/svg" width="111.5" height="111.5" viewBox="0 0 111.5 111.5"><title>Icon_UnderstandExistingEcosystem</title><g id="Layer_2" data-name="Layer 2"><g id="Layer_1-2" data-name="Layer 1"><path d="M110.75,55.75a55,55,0,1,1-55-55,55,55,0,0,1,55,55Z" fill="#209948" stroke="#fff" stroke-miterlimit="10" stroke-width="1.5"/><path d="M55.75,101.36,10.14,55.75,55.75,10.14l45.61,45.61ZM14.42,55.75,55.75,97.08,97.08,55.75,55.75,14.42Z" fill="#fff"/><g id="_5" data-name="5"><path d="M54.93,80.17A5,5,0,0,1,50.2,76.8H50a2,2,0,0,1-2-2V69.18a.66.66,0,0,1,.66-.66H61.22a.66.66,0,0,1,.66.66v5.57a2,2,0,0,1-2,2h-.18A5,5,0,0,1,54.93,80.17ZM49.3,69.84v4.92a.72.72,0,0,0,.72.72h.67a.66.66,0,0,1,.63.48l0,.18a3.68,3.68,0,0,0,7.07.09l.09-.29a.66.66,0,0,1,.63-.47h.67a.72.72,0,0,0,.72-.72V69.84Z" fill="#fff"/><path d="M48.63,69.84a.66.66,0,0,1-.66-.66c0-3.86-1.43-6.74-3.75-10.13a13,13,0,1,1,21.39,0c-2.3,3.35-3.72,6.2-3.72,10.09a.66.66,0,0,1-.66.66Z" fill="#fff"/><path d="M37.27,59.56A.66.66,0,0,1,37,58.29l2.6-1a.66.66,0,1,1,.47,1.23l-2.6,1A.66.66,0,0,1,37.27,59.56Z" fill="#fff"/><path d="M39.21,48l-.14,0-2.7-.59a.66.66,0,0,1,.28-1.29l2.7.59a.66.66,0,0,1-.14,1.3Z" fill="#fff"/><path d="M44.49,39.46a.66.66,0,0,1-.46-.19l-1.89-1.87a.66.66,0,0,1,.92-.94L45,38.34a.66.66,0,0,1-.46,1.13Z" fill="#fff"/><path d="M55.12,35.56a.66.66,0,0,1-.66-.66V32.18a.66.66,0,1,1,1.32,0V34.9A.66.66,0,0,1,55.12,35.56Z" fill="#fff"/><path d="M72.89,59.56a.66.66,0,0,1-.24,0l-2.6-1a.66.66,0,1,1,.47-1.23l2.6,1a.66.66,0,0,1-.24,1.27Z" fill="#fff"/><path d="M71,48a.66.66,0,0,1-.14-1.3l2.7-.59a.66.66,0,1,1,.28,1.29l-2.7.59Z" fill="#fff"/><path d="M65.76,39.46a.66.66,0,0,1-.46-1.13l1.89-1.87a.66.66,0,1,1,.92.94l-1.89,1.87A.66.66,0,0,1,65.76,39.46Z" fill="#fff"/><path d="M59.17,76.8H50.7a.66.66,0,0,1,0-1.32h8.47a.66.66,0,0,1,0,1.32Z" fill="#fff"/><path d="M61,73.32H48.9a.66.66,0,0,1,0-1.32H61a.66.66,0,0,1,0,1.32Z" fill="#fff"/></g><path d="M53.14,70.77a.66.66,0,0,1-.66-.65,32.61,32.61,0,0,0-3-12.87,1.69,1.69,0,0,1,1.83-2.37,4.24,4.24,0,0,1,1.56.72,3.51,3.51,0,0,0,3.91,0,4.24,4.24,0,0,1,1.56-.72,1.69,1.69,0,0,1,1.83,2.37,32.61,32.61,0,0,0-3,12.87.66.66,0,0,1-1.32,0A34,34,0,0,1,59,56.71a.36.36,0,0,0,0-.38.37.37,0,0,0-.36-.14,3.2,3.2,0,0,0-1.06.52,4.83,4.83,0,0,1-5.37,0,3.2,3.2,0,0,0-1.06-.52.37.37,0,0,0-.41.52,34,34,0,0,1,3.13,13.4.66.66,0,0,1-.65.67Z" fill="#209948"/></g></g></svg>