<svg xmlns="http://www.w3.org/2000/svg" width="111.5" height="111.5" viewBox="0 0 111.5 111.5"><title>Icon_DesignForScale</title><g id="Layer_2" data-name="Layer 2"><g id="Layer_1-2" data-name="Layer 1"><path d="M110.75,55.75a55,55,0,1,1-55-55,55,55,0,0,1,55,55Z" fill="#ff9e1b" stroke="#fff" stroke-miterlimit="10" stroke-width="1.5"/><polygon points="74.46 41.14 24.56 41.14 24.56 35.09 74.46 35.09 74.46 41.14 74.46 41.14" fill="#fff"/><polygon points="68.41 77.42 74.46 77.42 74.46 35.09 68.41 35.09 68.41 77.42 68.41 77.42" fill="#fff"/><polygon points="33.64 71.38 83.53 71.38 83.53 77.42 33.64 77.42 33.64 71.38 33.64 71.38" fill="#fff"/><polygon points="39.69 35.09 33.64 35.09 33.64 77.42 39.69 77.42 39.69 35.09 39.69 35.09" fill="#fff"/><polygon points="39.69 26.02 33.64 26.02 33.64 32.82 39.69 32.82 39.69 26.02 39.69 26.02" fill="#fff"/><polygon points="74.46 79.69 68.41 79.69 68.41 86.5 74.46 86.5 74.46 79.69 74.46 79.69" fill="#fff"/><polygon points="80.42 31.56 31.18 80.79 28.52 78.13 77.75 28.89 80.42 31.56 80.42 31.56" fill="#fff"/><path d="M31.18,82.93l-4.8-4.8L77.75,26.75l4.8,4.8Zm-.53-4.8.53.53,47.1-47.1L77.75,31Z" fill="#fff"/></g></g></svg>