<svg xmlns="http://www.w3.org/2000/svg" width="111.5" height="111.5" viewBox="0 0 111.5 111.5"><title>Icon_DataDriven</title><g id="Layer_2" data-name="Layer 2"><g id="Layer_1-2" data-name="Layer 1"><path d="M110.75,55.75a55,55,0,1,1-55-55,55,55,0,0,1,55,55Z" fill="#006667" stroke="#fff" stroke-miterlimit="10" stroke-width="1.5"/><path d="M88.26,83.79H23.9a.54.54,0,0,1,0-1.09H88.26a.54.54,0,0,1,0,1.09Z" fill="#fff"/><polygon points="27.4 64.95 36 64.95 36 83.12 27.4 83.12 27.4 64.95 27.4 64.95" fill="#fff"/><polygon points="43.65 48.71 52.26 48.71 52.26 83.12 43.65 83.12 43.65 48.71 43.65 48.71" fill="#fff"/><polygon points="59.91 63.21 68.51 63.21 68.51 83.12 59.91 83.12 59.91 63.21 59.91 63.21" fill="#fff"/><polygon points="76.16 55.67 84.76 55.67 84.76 83.12 76.16 83.12 76.16 55.67 76.16 55.67" fill="#fff"/><path d="M31.7,44.62a5,5,0,1,0,5,5,5,5,0,0,0-5-5ZM48,28.11a5,5,0,1,0,5,5,5,5,0,0,0-5-5ZM64.21,42.88a5,5,0,1,0,5,5,5,5,0,0,0-5-5Zm16.25-7.51a5,5,0,1,0,5,5,5,5,0,0,0-5-5Z" fill="#fff"/><path d="M36.14,45.62a.54.54,0,0,1-.38-.93l7.67-7.57a.54.54,0,0,1,.76.78l-7.67,7.57A.54.54,0,0,1,36.14,45.62Z" fill="#fff"/><path d="M60.17,44.76a.54.54,0,0,1-.37-.14l-7.74-7.09a.54.54,0,0,1,.74-.8l7.74,7.09a.54.54,0,0,1-.37.95Z" fill="#fff"/><path d="M69.09,46.27a.54.54,0,0,1-.24-1l5.83-2.84a.54.54,0,1,1,.48,1l-5.83,2.84A.54.54,0,0,1,69.09,46.27Z" fill="#fff"/></g></g></svg>