<svg xmlns="http://www.w3.org/2000/svg" width="111.5" height="111.5" viewBox="0 0 111.5 111.5"><title>Icon_Collaborative</title><g id="Layer_2" data-name="Layer 2"><g id="Layer_1-2" data-name="Layer 1"><circle cx="55.75" cy="55.75" r="55" fill="#ef3c24" stroke="#fff" stroke-miterlimit="10" stroke-width="1.5"/><path d="M55.75,59.34A21.55,21.55,0,0,0,34.2,80.89H77.3A21.55,21.55,0,0,0,55.75,59.34Z" fill="#fff"/><circle cx="81.61" cy="48.57" r="10.77" fill="#fff"/><path d="M81.61,61.26a17.16,17.16,0,0,0-8,2,25.05,25.05,0,0,1,7.27,17.67H98.67A17.22,17.22,0,0,0,81.61,61.26Z" fill="#fff"/><path d="M29.89,61.26A17.22,17.22,0,0,0,12.83,80.89H30.61a25.05,25.05,0,0,1,7.27-17.67A17.16,17.16,0,0,0,29.89,61.26Z" fill="#fff"/><circle cx="55.75" cy="43.18" r="12.57" fill="#fff"/><circle cx="29.89" cy="48.57" r="10.77" fill="#fff"/></g></g></svg>