<svg xmlns="http://www.w3.org/2000/svg" width="111.5" height="111.5" viewBox="0 0 111.5 111.5"><title>Icon_OpenSource</title><g id="Layer_2" data-name="Layer 2"><g id="Layer_1-2" data-name="Layer 1"><circle cx="55.75" cy="55.75" r="55" fill="#0097ff" stroke="#fff" stroke-miterlimit="10" stroke-width="1.5"/><path d="M35.2,57.53H22.14a32.1,32.1,0,0,0,9.35,21.69A34.2,34.2,0,0,1,39.19,74,38.72,38.72,0,0,1,35.2,57.53Z" fill="none"/><path d="M51.54,24.45a32.06,32.06,0,0,0-18.31,7.77,32.14,32.14,0,0,0,7.51,4.86A49.25,49.25,0,0,1,51.54,24.45Z" fill="none"/><path d="M67.62,37.2a32.14,32.14,0,0,0,7.78-5,32.06,32.06,0,0,0-18.69-7.79A49.21,49.21,0,0,1,67.62,37.2Z" fill="none"/><path d="M39.76,38.85a34.16,34.16,0,0,1-8-5.25,32.1,32.1,0,0,0-9.6,21.93H35.22A39,39,0,0,1,39.76,38.85Z" fill="none"/><path d="M55.32,25.88V40.06A32.19,32.19,0,0,0,65.74,38,47.35,47.35,0,0,0,55.32,25.88Z" fill="none"/><path d="M80.57,44.31a12.91,12.91,0,0,1,3.75.56,32.27,32.27,0,0,0-7.44-11.28A34.16,34.16,0,0,1,68.59,39a40.38,40.38,0,0,1,3,7.39,12.87,12.87,0,0,1,7-2.05Z" fill="none"/><path d="M55.32,72.52V88.11a49.34,49.34,0,0,0,7.79-8.18V73.74A32.18,32.18,0,0,0,55.32,72.52Z" fill="none"/><path d="M69.84,47.68a38.31,38.31,0,0,0-3.11-7.92,34.2,34.2,0,0,1-11.41,2.31V55.52H65.7A12.92,12.92,0,0,1,69.84,47.68Z" fill="none"/><path d="M63.38,82.84a51.61,51.61,0,0,1-5.47,5.69,31.93,31.93,0,0,0,8-2A7.13,7.13,0,0,1,63.38,82.84Z" fill="none"/><path d="M65.56,61.15V57.53H55.32v13a34.22,34.22,0,0,1,7.79,1.14V66.53A7.1,7.1,0,0,1,65.56,61.15Z" fill="none"/><path d="M37.24,55.52H53.31V42.08a34.19,34.19,0,0,1-11.69-2.43A37,37,0,0,0,37.24,55.52Z" fill="none"/><path d="M42.61,37.88a32.18,32.18,0,0,0,10.7,2.18V25.6A47.56,47.56,0,0,0,42.61,37.88Z" fill="none"/><path d="M40.11,75.8A32.18,32.18,0,0,0,33,80.61a32.08,32.08,0,0,0,17.35,7.87A48.17,48.17,0,0,1,40.11,75.8Z" fill="none"/><path d="M41,73.18a34.15,34.15,0,0,1,12.28-2.66v-13H37.21A36.73,36.73,0,0,0,41,73.18Z" fill="none"/><path d="M53.21,88.32l.09.1V72.53A32.14,32.14,0,0,0,42,75,47,47,0,0,0,53.21,88.32Z" fill="none"/><path d="M57.91,88.52a51.61,51.61,0,0,0,5.47-5.69,7.08,7.08,0,0,1-.27-1.92v-1a49.34,49.34,0,0,1-7.79,8.18V72.52a32.18,32.18,0,0,1,7.79,1.21V71.65a34.22,34.22,0,0,0-7.79-1.14v-13H65.56v-.26a13,13,0,0,1,.13-1.75H55.32V42.08a34.2,34.2,0,0,0,11.41-2.31,38.31,38.31,0,0,1,3.11,7.92,13,13,0,0,1,1.72-1.32,40.38,40.38,0,0,0-3-7.39,34.16,34.16,0,0,0,8.3-5.38,32.27,32.27,0,0,1,7.44,11.28,12.87,12.87,0,0,1,2.52,1.07A34.23,34.23,0,1,0,68.27,87.75a7.09,7.09,0,0,1-2.37-1.19A31.93,31.93,0,0,1,57.91,88.52ZM75.4,32.22a32.14,32.14,0,0,1-7.78,5A49.21,49.21,0,0,0,56.71,24.42,32.06,32.06,0,0,1,75.4,32.22ZM55.32,25.88A47.35,47.35,0,0,1,65.74,38a32.19,32.19,0,0,1-10.42,2.07Zm-3.78-1.43a49.25,49.25,0,0,0-10.8,12.63,32.14,32.14,0,0,1-7.51-4.86A32.06,32.06,0,0,1,51.54,24.45Zm-19.8,9.14a34.16,34.16,0,0,0,8,5.25,39,39,0,0,0-4.54,16.67H22.14A32.1,32.1,0,0,1,31.74,33.59Zm-9.6,23.94H35.2a38.72,38.72,0,0,0,4,16.48,34.2,34.2,0,0,0-7.7,5.21A32.1,32.1,0,0,1,22.14,57.53ZM33,80.61a32.18,32.18,0,0,1,7.15-4.81,48.17,48.17,0,0,0,10.2,12.67A32.08,32.08,0,0,1,33,80.61Zm20.34,7.81-.09-.1A47,47,0,0,1,42,75a32.14,32.14,0,0,1,11.35-2.44Zm0-17.9A34.15,34.15,0,0,0,41,73.18a36.73,36.73,0,0,1-3.81-15.64H53.31Zm0-15H37.24a37,37,0,0,1,4.38-15.87,34.19,34.19,0,0,0,11.69,2.43Zm0-15.46a32.18,32.18,0,0,1-10.7-2.18A47.56,47.56,0,0,1,53.31,25.6Z" fill="#fff"/><path d="M80.57,50h-2a7.27,7.27,0,0,0-5.69,2.74h0A7.27,7.27,0,0,1,78.52,50h2a7.27,7.27,0,0,1,5.71,2.77h0A7.27,7.27,0,0,0,80.57,50Z" fill="#0097ff"/><path d="M69.86,65.13a1.44,1.44,0,0,0-1.09,1.4A1.44,1.44,0,0,1,69.86,65.13Z" fill="#0097ff"/><path d="M88.87,82.36a1.44,1.44,0,0,0,1-.38,1.44,1.44,0,0,1-1,.38Z" fill="#0097ff"/><path d="M86.51,53.06l-.23-.31h0Z" fill="#0097ff"/><path d="M70.22,82.36a1.44,1.44,0,0,1-.81-.25,1.44,1.44,0,0,0,.81.25Z" fill="#fff"/><path d="M90.29,66.24a1.45,1.45,0,0,0-1.42-1.16h-14V57.27a3.6,3.6,0,0,1,.47-1.75,4.43,4.43,0,0,1,.27-.44,3.11,3.11,0,0,1,.33-.39l.09-.08a3.65,3.65,0,0,1,.66-.49,3.91,3.91,0,0,1,.42-.21,3.52,3.52,0,0,1,1.4-.29h2a3.62,3.62,0,0,1,2,.62,3.45,3.45,0,0,1,.64.57,3.9,3.9,0,0,1,.5.7,3.59,3.59,0,0,1,.18.33,3.62,3.62,0,0,1,.29,1.42V60h3.64V57.27a7.24,7.24,0,0,0-1.35-4.21l-.23-.31A7.27,7.27,0,0,0,80.57,50h-2a7.27,7.27,0,0,0-5.69,2.74h0a7.25,7.25,0,0,0-1.6,4.54v7.81h-1.1l-.28,0a1.44,1.44,0,0,0-1.09,1.4V80.92a1.45,1.45,0,0,0,1.45,1.45H88.87a1.45,1.45,0,0,0,1.45-1.45V66.53A1.46,1.46,0,0,0,90.29,66.24ZM81.05,77.92a1.5,1.5,0,0,1-1.32,1.49l-.18,0A1.51,1.51,0,0,1,78,77.92V73.64a2.76,2.76,0,1,1,3,0v4.28Z" fill="#fff"/></g></g></svg>